
<svg width="1566" height="1637" viewBox="0 0 1566 1637" fill="none" xmlns="http://www.w3.org/2000/svg">
<path d="M0 818.5V0H783H1566V818.5V1637H783H0V818.5Z" fill="#737373"/>
<path d="M0 818.5V0H783H1566V818.5V1637H783H0V818.5ZM490.5 1319C503.5 1311.8 516.7 1303.3 518.7 1300.9C520.6 1298.5 523 1280.2 524.1 1259C524.6 1247.7 525.4 1235.3 525.6 1231.3L526.2 1224.2L536.8 1223.4C557.7 1222 584.7 1223.8 621 1229.1C692 1239.4 706.7 1241 731.8 1241H744.2L750.2 1234.5C772.4 1210.7 791.5 1179.5 810.8 1135.5C816.1 1123.3 837.4 1070.7 848.1 1043.2C848.9 1041 849.5 1041.2 871.8 1052.4C923.1 1078.1 968.3 1096.7 1030 1117.5C1045.1 1122.5 1065.6 1128.8 1075.5 1131.4C1139.4 1148.2 1158.5 1155.7 1189 1176.1C1200.9 1184.1 1228.2 1204 1242.6 1215.2C1243.4 1215.8 1245.4 1213.5 1248.7 1208.3C1251.5 1204 1260.9 1189.5 1269.7 1176C1278.5 1162.5 1297.1 1133.5 1311 1111.5C1324.9 1089.5 1343.1 1061.2 1351.3 1048.5C1359.6 1035.9 1366.5 1024.6 1366.7 1023.5C1367 1022.4 1365.6 1018 1363.6 1013.7L1360.1 1006H1335.6C1313.4 1006 1310.8 1006.2 1309.2 1007.8C1308.2 1008.8 1302.1 1015.8 1295.5 1023.5C1275.7 1046.6 1258.3 1062.8 1249.1 1066.7C1243.5 1069.1 1233.2 1069.5 1224.9 1067.6C1211.1 1064.5 1201 1059.3 1158.5 1033C1150.8 1028.2 1126.5 1013.6 1104.5 1000.5C1039.4 961.7 1010.1 941.4 986.3 918.5L980 912.5L978.6 903.5C969.3 847.4 972.2 774 986.1 713.7C990 696.8 992.2 690.5 997.6 680C1005.8 664.2 1017.1 651.2 1043.9 626.7C1094 580.8 1157.1 533 1259.8 463.1C1279.4 449.8 1287.8 443.5 1287.2 442.7C1285.8 440.8 1273.8 425.7 1272.3 423.9C1271 422.4 1272 421.8 1281.7 417.7C1287.6 415.2 1292.8 413.4 1293.2 413.6C1293.6 413.9 1294 439.5 1294 470.6V527H1291.8C1290.5 527 1281.5 527.7 1271.8 528.4C1255.7 529.6 1253.6 530 1247.8 532.8C1244.3 534.4 1239.2 537.9 1236.3 540.4C1230.4 545.7 1210 569.3 1210 570.9C1210 571.4 1214.4 580.1 1219.9 590.2C1233.6 615.7 1235.4 619 1236 619C1236.3 619 1237.6 614.8 1238.9 609.8C1242.9 593.7 1250.5 571.9 1255.5 562C1261.2 550.6 1268.3 539.9 1268.7 542C1268.9 542.8 1267.9 550.7 1266.6 559.4C1265.2 568.2 1264.2 575.6 1264.4 575.8C1264.8 576.2 1279.4 571.4 1282 570C1284.3 568.8 1285.5 565.5 1288 554C1289.2 548.8 1290.3 544.4 1290.6 544.1C1291.4 543.2 1312 554.5 1312 555.8C1312.1 561.5 1303.4 587.5 1295.6 604.9C1289.9 617.8 1278.1 640.1 1274.8 644.1L1272.9 646.5L1273.5 642C1273.9 639.5 1275.8 629.5 1277.6 619.7L1281.1 601.8L1272.2 589.7C1267.3 583.1 1262.8 577.4 1262.3 577.3C1260.5 576.7 1259.7 615 1260.4 660.5C1260.7 683.6 1261.4 704.8 1261.8 707.5L1262.5 712.5L1268.8 702C1284 676.8 1305.6 630 1326.1 578.2C1330.7 566.6 1334.9 557.1 1335.5 557.3C1337 557.8 1341 568.3 1342.7 576.4C1344.8 586.1 1343.9 599.1 1340.4 610.1C1337.2 620.3 1334.3 626.1 1327.6 636C1324.9 640.1 1321.5 646.6 1320.3 650.3C1316 663 1309.6 673.7 1299 685.8C1288.6 697.8 1264.9 721.3 1264.1 720.4C1263.6 719.9 1261.5 715.2 1259.4 710C1254.5 698.1 1250.8 694.1 1241.6 691C1237.9 689.8 1234.7 689 1234.5 689.1C1234.4 689.3 1237.4 700.8 1241.2 714.5L1248.2 739.5L1246.1 753C1245 760.4 1243.1 774.2 1242 783.5C1238.5 812.5 1234.3 828.7 1226.9 841.8C1221.6 851.2 1173.7 915.3 1171.7 915.8C1170.7 916 1147.1 896.5 1140.7 890.1C1139 888.4 1139.2 888 1145.8 879.4C1182.6 831.4 1188.9 822.8 1199.3 805.9C1219 773.9 1224.5 755.3 1230.1 702.2C1230.7 696 1231 690.7 1230.7 690.4C1230.5 690.1 1226.8 690.2 1222.6 690.6L1214.9 691.3L1207 706.9C1190 740.5 1171.4 765.1 1144 790.5C1131.7 801.9 1120.7 811 1119.2 811C1118.3 811 1097 782 1097 780.8C1097 780.5 1100.7 777.7 1105.3 774.4C1168.4 729.2 1186.1 706 1208.1 639.2C1211.1 630.3 1213.9 623.1 1214.3 623.3C1214.8 623.4 1217.6 630.8 1220.4 639.6C1225.7 655.8 1231.4 668 1237.2 675.2C1238.9 677.4 1240.6 678.8 1241 678.3C1241.4 677.9 1243 667.5 1244.5 655.2L1247.3 632.9L1236.5 622.7C1226 612.7 1213.2 603 1210.5 603C1206.2 603 1198.4 618.3 1191.5 640.5C1186.3 657 1180.6 671.8 1175.9 681.3C1166.6 699.9 1150.9 717.6 1124.7 739.2C1096.8 762.2 1094.9 763.9 1088.3 770.1L1081.8 776.2L1082.9 781.8C1084.6 790.3 1089.4 799.3 1096.3 806.7C1102.2 812.9 1122.4 829 1124.5 829C1125.1 829 1132.5 822.5 1141 814.7C1155.7 801.1 1179.2 776.5 1200.1 752.9C1205.3 747 1209.6 742.8 1209.8 743.6C1210.4 746.2 1203.7 763.8 1196.5 778.5C1187.7 796.5 1176.3 814 1154.7 842.9C1137.2 866.5 1120 891.2 1120 892.9C1120 894.9 1140.9 911.3 1158 922.7C1168.9 930 1181.3 937.1 1193.9 943.4C1197.9 945.5 1204.2 949.6 1207.8 952.7C1245.1 984.3 1297.9 994.2 1358.5 980.9C1376 977 1374.3 978.1 1378.5 968.2C1385 952.8 1387.9 939.4 1393 900.1C1398 862 1399.6 856.3 1417.4 813.2C1437.2 765.2 1439.3 752.5 1433.2 717.8C1428.9 693.1 1423.1 670.1 1415.6 647.5C1396.1 589.1 1380.4 569.8 1326.2 537.2L1308.5 526.5L1307.7 518C1307.2 513.3 1306.8 490.4 1306.7 467C1306.5 418.1 1306.1 420.6 1316.9 390.2C1324.4 369 1326.4 359.8 1325 353.3C1321.7 338.8 1312.6 322.8 1298.3 306.3C1292.1 299.3 1290.5 298.7 1278.7 298.8C1264.7 299 1255.1 302.9 1245.2 312.4C1236.9 320.3 1230.7 329.8 1222.1 347.4L1215.1 361.8L1202.4 368.4C1180.8 379.7 1165.1 390.7 1126 422C1102.3 441 1098.4 443.9 1060.5 471.5C993.6 520.2 967.6 537.2 934 554C918.7 561.7 901.1 569.4 900.4 568.7C900.2 568.5 908.1 560.5 918.1 550.9C928.1 541.4 935.8 533.4 935.3 533.3C934.9 533.1 926.6 536.1 917 540C907.4 543.8 899.1 547 898.4 547C896.7 547 869.1 518.5 849.6 496.5C833.6 478.5 804 442.4 804 440.9C804 440.5 806.4 438.8 809.3 437.2C812.1 435.6 819.3 431.3 825.3 427.7C837.6 420.2 844 417.7 850.2 418.2C854.3 418.5 854.7 418.9 861.5 427.7C865.3 432.7 868.9 436.8 869.4 436.6C869.9 436.5 872.4 431.5 875.1 425.5C877.7 419.5 880.3 414.4 880.9 414.2C882.2 413.8 926 450 926 451.5C926 452 922.1 454 917.2 455.9C912.4 457.7 908.2 459.5 907.8 459.9C907.5 460.2 909.6 465.6 912.6 471.9C915.6 478.2 917.7 483.7 917.3 484.1C916.8 484.4 911.9 486.5 906.3 488.6C900.6 490.7 896 492.7 896 493C896 493.9 930.1 526.3 930.5 525.8C930.8 525.6 929.9 520.4 928.5 514.4C922.8 489.2 922.9 472.9 929.1 454.7C930.7 449.7 931.9 445.6 931.8 445.5C931.4 445.2 895.5 416.7 895.2 416.5C895.1 416.4 892.3 409.4 889.1 400.9C885.9 392.4 880.9 380.1 878 373.5C872.1 359.8 843.9 302.4 841.8 299.7C840.5 297.9 840.1 297.9 831.5 300.4C792.3 311.5 752.3 330.8 708.6 359.7C683.7 376.2 643 406.9 643 409.3C643 410.5 662.4 439.4 674.3 455.9C686.4 472.9 701 491.3 717.5 510.5C732.6 528 735.7 533.4 737 543.8C738 551.3 737.2 566 735.8 566C733.4 566 674.3 531.6 645 513.2C603.2 486.9 559.3 455.5 521.1 424.6L508.7 414.6L502.5 401.4C491.6 378.5 482.5 365 474.2 359.5C468.5 355.8 455.4 351.3 438.8 347.4C430.6 345.5 423.7 344 423.6 344C422.7 344 406.2 374.4 402.8 382.3C397.5 394.5 394.6 408.1 395.3 418.2C396.2 432.7 402.5 441.8 419.9 454.2C433.8 464.1 433 462.9 433 474C433 487.1 431.4 506.4 428.9 524.2C426.6 540.7 419.7 576.7 418.6 577.7C417.7 578.6 403.8 576.6 383.5 572.5C346.7 565.1 324.9 562.7 306 564.1C290.2 565.2 286.6 566.5 273.5 575.8C258.5 586.4 244.4 602.9 219.4 639C183.5 690.9 170.6 702.3 119.5 727.5C102.2 736.1 52.2 758 50 758C49.5 758 48.9 758.4 48.5 758.9C47.9 760 62.2 780.7 80.8 805.8C91 819.7 92.3 821.1 94.6 820.6C97.7 819.8 127.2 806.4 140.3 799.9C177.3 781.3 215.1 756.1 240.9 732.9C256.8 718.5 259.5 716.3 258.7 718.3C258.3 719.3 254.4 730.7 250 743.8C240.6 771.3 231.2 791.5 221.9 804C214.6 813.9 187.7 841.1 170.3 856.2C154.3 870.1 131.8 888.4 109 905.9C98.8 913.7 90.4 920.5 90.2 920.9C90.1 921.3 98.4 928.2 108.7 936.3C129.5 952.4 140.6 962 146.8 969.3C152.3 975.6 157.6 986.9 166.6 1011.2C178.7 1043.9 187 1058 200.9 1069.6C208.8 1076.3 227.1 1085.5 242 1090.4C267.7 1098.9 307.9 1103.9 349.6 1104H366.7L380.2 1076.3C399 1037.8 413.7 1004.3 429.2 964.5C449 913.4 453.6 893.1 460 826C461.7 808.1 463.3 793.3 463.6 793.1C464.3 792.4 469.6 804.9 472.4 813.9C476.5 826.8 478.2 839 478.2 854C478.2 876.8 474.8 892.6 461.4 933C456.7 947 451.3 963.7 449.4 970L445.9 981.5L449.2 984.3C453.6 987.9 463.6 993.6 471.9 997.1C478.1 999.7 508 1008.3 508.7 1007.7C508.8 1007.5 510.9 1002.9 513.3 997.4C549.1 916.4 560.3 831.8 545.5 754C544.2 747.1 542 735 540.5 727C532.4 681.1 525.7 661.6 510.6 639.5C503.1 628.5 494 619.2 483.5 611.8C475.9 606.5 470.4 603.4 446 590.6C440 587.5 435.4 584.4 435.2 583.4C434.7 581.1 449.3 498 450.2 498C451.8 498 504.5 540.6 553 581C585.8 608.4 621.3 637.1 642.5 653.5C697.3 695.9 717.2 720.6 726.6 757.9C729.6 769.7 732.6 797.9 734.1 829.5C736.8 885 731.8 937.7 719.6 982C703.4 1041.2 671.7 1088.8 635.9 1107.8C623.9 1114.2 619.2 1115.4 608.1 1114.7C592.5 1113.7 581.8 1110.4 548.8 1096.7C540.2 1093.1 528.5 1088.7 522.9 1086.9C512.7 1083.6 512.6 1083.6 502.6 1084.8C492.4 1085.9 474.4 1089.2 455 1093.4C445.8 1095.4 444.5 1095.9 444.2 1097.8C443.2 1104.4 457.9 1212.5 469.5 1284.1C473.1 1306.3 476 1324.8 476 1325.2C476 1326.7 477.9 1325.9 490.5 1319V1319Z" fill="#FEFEFE"/>
<path d="M490.6 1300.9C490 1298.2 487.4 1282.1 480 1233.3C473.3 1189.4 466.7 1150.8 461.9 1127.1C459.8 1116.4 458 1107.3 458 1107C458 1104.7 513.3 1103.7 522 1105.9C525 1106.6 538.5 1111.5 551.9 1116.7C581.9 1128.3 591.9 1131 606.5 1131.7C625.7 1132.6 636.6 1129 653.5 1116.3C683.2 1093.9 707.4 1062.1 722.5 1025.5C731.8 1003.3 736.7 985.9 743.1 953.5C748.8 924.3 751 918.8 757.7 915.4C761.5 913.5 764.1 913.2 788.2 912.7C802.7 912.3 846.5 911.9 885.5 911.8L956.5 911.6L965 920.4C991.2 947.7 1028.1 974.4 1092 1012.5C1109.3 1022.8 1139.7 1041.1 1159.5 1053C1198.6 1076.7 1206.1 1080.7 1216.1 1083.8C1225.6 1086.7 1230.3 1087.2 1240.8 1086.2C1257.9 1084.5 1268.6 1077 1293 1049.5C1302.8 1038.6 1314.3 1028.4 1320.9 1025.1C1326.1 1022.4 1335.7 1020.9 1340.3 1021.9C1342.4 1022.4 1344.4 1023.1 1344.7 1023.3C1345.2 1023.9 1328.4 1052.8 1314 1076C1302.2 1095.1 1241 1191.2 1240 1192.3C1239.7 1192.7 1235.1 1189.7 1229.9 1185.5C1209.9 1169.4 1188.8 1155.7 1168 1145.4C1142.6 1132.8 1130.1 1128.3 1086 1116.4C1011.3 1096.1 949.1 1072.1 865.7 1031.3C850 1023.5 839.6 1019 839.1 1019.6C838.6 1020.1 834.7 1029.7 830.5 1041C805.5 1107.8 786.1 1151.6 763.8 1190.7C747.5 1219.4 738.2 1224.8 707.5 1223.7C687.6 1222.9 679.1 1221.7 620.5 1211.6C591.1 1206.5 581.5 1205.6 557 1205.6C534.5 1205.6 522.8 1206.7 511.5 1209.8L508.5 1210.6L507.9 1235.6C507.6 1249.3 507.2 1266 507.1 1272.7L507 1284.9L500.8 1292.2C490.8 1304.1 491.2 1303.8 490.6 1300.9Z" fill="#FEFEFE"/>
<path d="M325.9 1087.9C280.1 1085.9 248.7 1079 221.7 1065.2C211.1 1059.8 207.9 1057.6 203.9 1053C197.1 1045.5 188.5 1027.5 181.1 1005.8C170 973.1 166.5 966.3 154.3 954.3C150.3 950.3 139.8 941.9 131 935.5C122.2 929.1 114.7 923.3 114.3 922.7C113.5 921.5 115.3 919.9 140 899.7C190.2 858.8 214 837.8 226.1 823.6C249.2 796.8 263.3 764.2 269.5 723.4C271.1 712.2 273.6 678.2 272.7 677.4C272.4 677.1 261.7 687.5 248.8 700.5C200.3 749.8 173.7 769.9 136.7 785.4C125.6 790.1 108.5 795.4 100.5 796.5L95.8 797.3L81.9 783.1C74.3 775.4 68 768.6 68 768.2C68 767.7 77.6 763.2 89.2 758C143 734.3 163.5 722.9 183.2 705.6C194.7 695.5 204.4 684.4 220.6 662.5C242.8 632.7 249.5 624 250.5 624C251.1 624 254.2 626.3 257.5 629.2C300.5 666 348 685.1 414 692.2C427 693.6 485.8 693.9 504.7 692.7L516.9 691.9L520 702C530.8 737 536.3 775.4 536.3 816C536.3 869.3 527.5 918.9 508.5 971.5C505.9 978.7 503.3 986 502.7 987.9C502.1 989.7 501 991.4 500.3 991.7C499.2 992.1 464.8 976.8 462.6 974.9C462.2 974.5 465.8 963.9 470.8 951.3C481.6 924 487.2 906.8 490.7 890C493 879 493.4 875.2 493.4 858C493.4 836.5 492 824.1 487 803.5C482.1 782.8 472.6 756 463.5 736.5L459.7 728.5L458.8 733C456.8 743.8 450.7 788.2 447 820C442.1 862.3 440.1 874.5 434.4 897.5C423.5 941 408.4 979.5 366.4 1069.7L357.5 1089L350 1088.8C345.9 1088.8 335 1088.4 325.9 1087.9ZM378.9 903.7C382.5 894.3 388 880.7 391.2 873.5C394.5 866.4 397.8 858.9 398.6 856.9C400.1 853.4 400 853.1 390 826.9C384.4 812.4 379.4 800.1 378.9 799.5C378.4 799 378 800.7 377.9 804C377.8 813.6 376.4 831.9 375.8 832.6C374.9 833.4 354.7 829.5 341.5 825.8C328.7 822.3 312.9 816.2 296.5 808.5L285 803.1L285.5 797.8C287.5 779.2 289.7 756.4 289.4 756.1C289.3 756 285.5 763.3 281.1 772.4C276.7 781.6 271.6 791.2 269.7 793.8C262.3 803.9 257.8 815.5 251.5 841.1C249 850.8 245.9 862.4 244.5 866.9C243 871.5 242 875.4 242.2 875.6C242.5 875.8 247.3 872.4 253 867.9C271.2 853.7 274.8 852.7 292.2 856.4C307.5 859.7 328 865.4 369 877.9L371.5 878.7V899.8C371.5 911.5 371.7 921 372 921C372.3 921 375.4 913.2 378.9 903.7Z" fill="#FEFEFE"/>
<path d="M331.3 852.9C322.9 851.9 313.4 848.9 307.2 845.3C302.4 842.4 291 832.3 291 830.9C291 829.5 304.7 829.9 314.3 831.5C330.7 834.4 347 840.9 356.3 848.2L360.3 851.4L356.9 852.1C350.4 853.4 338.5 853.8 331.3 852.9Z" fill="#FEFEFE"/>
<path d="M1285 965C1279.8 964.5 1270.6 963.1 1264.5 962C1250.9 959.3 1229 952.4 1229 950.6C1229 949.9 1230.5 944.4 1232.4 938.4C1237.3 923.2 1245.4 892.5 1249.6 873.5C1251.6 864.7 1253.6 856.9 1254.2 856.2C1254.8 855.6 1261.1 851.8 1268.2 847.9C1275.3 844 1281 840.7 1280.8 840.6C1277 837.7 1259.1 820.6 1259.4 820.1C1259.7 819.7 1266.1 816.9 1273.6 814L1287.3 808.5L1274.7 796.5C1267.7 789.9 1262 784.2 1262 783.9C1262 783.6 1267.1 781.4 1273.3 779C1279.4 776.6 1284.9 774.4 1285.4 773.9C1285.8 773.5 1281.9 767.7 1276.6 761C1271.2 754.4 1266.6 748.2 1266.3 747.4C1265.9 746.4 1273.4 738.2 1289.2 722.2C1321.2 689.7 1341.2 667.2 1354.7 648.3L1359.5 641.6L1360.1 626.1C1361.9 586.6 1362.2 582.9 1363.6 584.1C1368.2 587.9 1383.6 615.6 1392 635C1407.8 671.8 1415.2 707.2 1415.3 745.5V763.5L1411.1 778C1398.2 821.9 1389.3 840.7 1374.5 855.3C1367 862.7 1359.4 867.4 1349.4 871L1341.9 873.6L1349.9 879.3C1362.5 888.3 1361.5 888.8 1346.3 881.2L1338.4 877.2L1337.1 868.2C1336.4 863.3 1334.5 855.5 1332.9 850.9C1331.2 846.3 1329.6 841.8 1329.4 840.9C1329 839.9 1334.3 832.6 1343.6 820.9C1361.1 799.1 1368.6 788 1373 777.4L1376.3 769.5L1375.7 748.5C1375.1 725.3 1373.4 714.8 1367.9 699.5C1364.7 690.7 1355.9 676 1353.9 676C1352.1 676 1353.4 695.1 1356.9 719.5C1363 761.4 1360 779.7 1344.1 797C1319.4 823.9 1311.5 833.7 1307.2 842.8C1303.2 851.3 1303.2 853.7 1308 863.4C1318.2 884.1 1340.5 898.2 1366.6 900.6C1370.7 901 1374.2 901.6 1374.4 901.9C1374.8 902.6 1364.4 961 1363.7 961.6C1363.5 961.9 1356.6 962.7 1348.4 963.5C1328.7 965.3 1296.8 966.1 1285 965Z" fill="#FEFEFE"/>
<path d="M778.5 895.9C765.9 895.4 753.1 894.7 750.3 894.4L745 893.9L747.9 891.4C752.3 887.7 762.7 883.2 770.5 881.6C782.3 879.2 795.7 878.7 818.1 880C834.7 880.9 848.2 880.9 877.5 880C898.4 879.3 920.1 878.9 925.8 878.9C937.6 879.1 948.6 881.6 956 885.6C960.7 888.2 965.8 892.6 964.9 893.4C962.1 895.9 825.7 897.7 778.5 895.9Z" fill="#FEFEFE"/>
<path d="M754.3 863.3C753.4 863 753 859.8 753 852.2C753 835 751.1 801.6 749.4 787.5C743.2 735.8 726.1 702.7 689.1 670.7C683.8 666.1 665.1 650.9 647.5 637C613.2 609.9 603.2 601.8 562 567.6C547.4 555.4 523.4 535.7 508.5 523.7C493.7 511.7 478 498.7 473.7 494.8C465.2 487.1 456 476.6 456 474.7C456.1 473.3 460.5 470.4 490.7 452.3C502.9 445 513.5 439 514.2 439C514.9 439.1 517.1 440.5 519.1 442.3C543.9 464.2 570.1 484.3 598.5 503.1C622 518.7 635 526.6 689.3 558.2C740.8 588.2 762.1 601.1 788.4 618.3C809.8 632.3 817.5 635.8 832 638.1C841.4 639.6 855.8 638.7 866.8 636C877 633.5 893.9 627 900 623.1L904.5 620.3L907 601.9L909.5 583.5L923.5 576.2C955.5 559.6 978 546.3 1011 524.5C1049.4 499.1 1077.8 478.3 1154.1 419.3C1176.9 401.7 1196.5 386.7 1197.7 386C1199.7 384.7 1200.6 385.2 1209.6 392.6C1220.8 401.7 1242.6 421 1254.9 432.6L1263.3 440.6L1233 461.4C1140.6 524.8 1077.3 573.6 1021.5 624.4C999.9 644.1 992.2 654.1 981.9 675.4C963.7 713.4 956.1 763.6 956 846.8V864L855.8 863.9C800.6 863.9 754.9 863.6 754.3 863.3ZM828 854.5C832.7 852 835 848.3 835 842.9C835 839 834.5 837.4 832.3 835C826.6 828.7 815.6 830.4 812.6 838.1C809.6 845.5 811 850.2 817.4 854.1C821.1 856.4 824.1 856.5 828 854.5ZM880.7 853.1C887.6 849.9 890.2 843.5 887 837.5C883.2 830.4 868.2 830.4 863.9 837.4C861.8 840.9 861.4 846.1 863.1 849.2C864.3 851.4 871.3 855 874.5 855C875.6 855 878.4 854.1 880.7 853.1ZM828.1 813.4C834.2 810.3 835.4 800.6 830.5 796C825.8 791.6 816.2 793.7 814 799.6C812.6 803.1 812.8 808.2 814.3 810C818.1 814.9 823 816.1 828.1 813.4ZM879.9 810.3C882.7 808.7 883 808.1 883 803.3C883 798.5 882.8 798.1 879.4 796.1L875.8 794L871.9 796.2C868.2 798.3 868 798.6 868 803.2C868 807.6 868.3 808.2 871.3 810C875.2 812.4 876 812.5 879.9 810.3ZM832 766.3L834.2 762.6L832.1 759.1C830.2 755.7 829.8 755.5 825 755.5C820.2 755.5 819.8 755.7 817.9 759.1L815.8 762.6L818 766.3C820 769.7 820.5 770 825 770C829.5 770 830 769.7 832 766.3ZM832.6 725.9C834.4 721.8 834.4 721.7 832.3 718.1C830.5 714.9 829.7 714.5 825.7 714.2C821.5 713.9 821.1 714.1 819.1 717.5C816.5 722 816.5 722.5 819.1 726.6C821 729.7 821.6 730 825.9 730C830.5 730 830.8 729.9 832.6 725.9ZM832.4 689.6C838.6 687 840.9 680.2 837.3 675C833.7 669.8 829.2 668.3 823.3 670.3C820.3 671.3 819.4 672.2 818.3 675.7C816.3 681.6 818.2 685.9 824.1 688.8C829.3 691.4 828.3 691.3 832.4 689.6ZM884 682C884 679.3 883.7 679 881 679C878.3 679 878 679.3 878 682C878 684.7 878.3 685 881 685C883.7 685 884 684.7 884 682Z" fill="#FEFEFE"/>
<path d="M442.5 679.4C430.9 678.5 394.5 673.7 382 671.4C342.6 664.1 315.2 653.6 290.6 636.4C282 630.4 268.3 618.4 263.2 612.3L259 607.2L268.7 597.9C281.6 585.7 289.1 580.3 295.8 578.4C300.6 577 303.4 576.9 318.6 577.9C353.5 580.2 387.5 588 437.3 604.9C461.5 613.2 470.5 618.6 485.1 633.6C493.7 642.6 514 668 514 669.9C514 670.5 513 671.2 511.8 671.5C500.5 674.1 494.6 675.2 482.5 676.9C467.9 679 451 680 442.5 679.4Z" fill="#FEFEFE"/>
<path d="M804.3 618.4C778.4 601 764.2 587.8 753.1 570.9C747 561.6 742.2 551.4 743.4 550.2C744.5 549.1 784 549.6 798 550.9C812.5 552.2 842.4 557 858.4 560.6C874.3 564.2 897.4 570.2 898.3 571C899.2 571.8 891.2 622 889.9 623.6C889.3 624.3 881.4 624.9 868.8 625.4C857.6 625.7 841.5 626.3 833 626.6L817.5 627.2L804.3 618.4Z" fill="#FEFEFE"/>
<path d="M827 544.8C794.4 540.8 779.3 538.1 768 534.3C756.8 530.5 742.9 523.8 734.8 518.1C727.8 513.3 713.1 499.5 714.1 498.6C715.8 497.1 737.1 483.7 749.5 476.5C771.4 463.7 782.9 457.7 784.4 458.3C786.6 459.2 857.4 546.6 856.8 547.8C856.6 548.2 843.2 546.9 827 544.8Z" fill="#FEFEFE"/>
<path d="M704.3 479.7C701.6 475.8 689.8 459.1 678.1 442.6C666.5 426.2 657 412.3 657 411.6C657.1 410 693.9 383 717 367.5C747.7 347.1 776.7 331.4 800 322.7C812 318.2 831.1 312.4 837 311.5L841.5 310.8L825.8 326.7C810.7 341.9 807.3 346 812.3 342.8C825.8 333.9 841.3 324.9 841.9 325.6C843 326.8 874 381.7 874 382.3C874 383.8 804.7 430.6 778 447.2C762.8 456.6 730.1 475.8 718.9 481.8L709.4 487L704.3 479.7Z" fill="#FEFEFE"/>
<path d="M438.5 447.3C429.2 446.5 421.2 445.5 420.8 445.2C420.2 444.5 423.3 424.4 424.2 423.5C424.5 423.2 429.4 424 435.3 425.2L445.9 427.4L448 424.9C452.1 420.2 458 410.7 460.2 405.1C462.3 400 462.5 398 462.4 382.3C462.3 372.8 462.3 365 462.5 365C462.7 365 468.2 371.4 474.7 379.3C485.8 392.4 487.3 394.7 494.3 409.4C498.5 418.1 501.7 425.6 501.4 426.1C501.2 426.5 492.7 431.9 482.6 438C461.6 450.6 466 449.6 438.5 447.3Z" fill="#FEFEFE"/>
<path d="M1249.5 402.4C1240.2 394.5 1231.3 386.7 1229.8 385.2L1227 382.5L1229.1 375.5C1230.2 371.7 1233.1 361.7 1235.7 353.4L1240.2 338.2L1253.7 324.1C1261.2 316.3 1267.4 310.1 1267.7 310.3C1267.9 310.6 1267.4 312.5 1266.5 314.6C1263.6 321.6 1260.8 334.4 1260.8 341C1260.8 345.2 1261.5 349.4 1262.8 352.8C1264.6 357.4 1274 372.4 1279.9 379.9L1281.8 382.4L1296 373.1C1303.8 368 1310.3 364 1310.5 364.2C1311.9 365.6 1270.2 417.1 1267.7 416.9C1267 416.9 1258.9 410.4 1249.5 402.4Z" fill="#FEFEFE"/>
</svg>
